<?xml version="1.0" encoding="UTF-8"?>
<svg id="Layer_1" data-name="Layer 1" xmlns="http://www.w3.org/2000/svg" viewBox="0 0 49.32 20.14">
  <defs>
    <style>
      .cls-1 {
        fill: #ef8e8e;
      }

      .cls-2 {
        fill: #010101;
      }
    </style>
  </defs>
  <path class="cls-2" d="M5.95,16.47c-1.87,0-2.81-.52-2.81-1.57,0-.92.58-1.8,1.74-2.64,1.07-.78,2.1-1.17,3.08-1.17.41,0,.62.13.62.4,0,.73-.65,1.45-1.94,2.18-.17.09-.32.17-.45.23-.12.05-.21.08-.27.08-.1,0-.15-.03-.15-.08,0-.09.14-.21.41-.36.72-.41,1.23-.87,1.53-1.4.03-.05.05-.11.08-.19.04-.08.06-.12.06-.13,0-.06-.05-.1-.15-.1-.79,0-1.64.3-2.56.9-1.01.65-1.51,1.34-1.51,2.08,0,.69.79,1.03,2.36,1.03,1.2,0,2.54-.21,4.01-.63,1.76-.5,2.88-1.11,3.37-1.85.14-.22.21-.43.21-.63,0-.8-1.08-1.52-3.24-2.16-.28-.09-.51-.15-.68-.19-.17-.04-.4-.1-.7-.19-.32-.1-.59-.19-.79-.27-.21-.09-.38-.17-.52-.25-.54-.31-.81-.69-.81-1.15,0-.88.78-1.63,2.34-2.26,1.32-.52,2.49-.78,3.51-.78,1.34,0,2.01.33,2.01.99,0,.32-.12.67-.35,1.05-.25.42-.52.63-.83.63-.12,0-.17-.04-.17-.13,0-.03.11-.17.33-.42.14-.17.23-.31.27-.42.05-.11.08-.22.08-.31,0-.51-.45-.76-1.36-.76-.25,0-.51.02-.79.06-.28.03-.59.08-.91.15-.7.17-1.4.4-2.11.71-1.02.46-1.53.91-1.53,1.36,0,.4.59.76,1.78,1.11,1.03.29,1.83.52,2.38.69.57.17.88.26.95.29,1.2.47,1.8,1.1,1.8,1.87,0,.52-.28,1.04-.83,1.55-.83.78-1.99,1.43-3.49,1.95-1.41.48-2.73.73-3.97.73Z"/>
  <path class="cls-2" d="M15.64,16.17c-.71,0-1.07-.38-1.07-1.13,0-.36.13-.88.39-1.57.12-.32.23-.59.35-.8.13-.23.26-.44.39-.63.08-.11.17-.17.27-.17s.21.05.31.15c.06.06.1.15.1.25,0,.09-.03.18-.08.27-.28.43-.52.87-.7,1.32-.18.43-.27.82-.27,1.17,0,.46.17.69.5.69.18,0,.39-.04.62-.13.23-.1.46-.25.7-.46.15-.14.32-.3.48-.48.18-.18.36-.39.54-.63.34-.41.5-.61.5-.61.06,0,.1.05.1.15s-.05.2-.14.31c-1.18,1.54-2.18,2.31-3,2.31Z"/>
  <path class="cls-2" d="M19.04,13.47c.34-.14.68-.39,1.05-.75.43-.41.64-.76.64-1.07,0-.15-.08-.23-.23-.23-.21,0-.49.29-.85.88-.32.48-.52.87-.6,1.17ZM19.7,15.96c-.43,0-.8-.12-1.12-.36-.32-.24-.48-.65-.48-1.22,0-.34.08-.71.23-1.11.15-.41.36-.79.62-1.15.27-.36.57-.65.89-.88.32-.23.65-.34.99-.34.13,0,.24.04.33.13.1.09.15.22.15.4,0,.4-.3.87-.91,1.43-.25.23-.5.43-.77.61-.26.18-.5.31-.72.38-.05.17-.08.36-.08.57,0,.29.07.56.21.8.14.24.37.36.68.36.39,0,.74-.11,1.07-.32.32-.22.62-.48.89-.78.27-.32.51-.61.72-.88.09-.13.18-.19.27-.19.05,0,.08.03.08.08,0,.03,0,.06-.02.1-.01.03-.03.05-.04.08-.22.31-.47.64-.76.99s-.61.66-.97.92-.78.38-1.26.38Z"/>
  <path class="cls-2" d="M25.63,16.17c-.72,0-1.08-.45-1.08-1.34,0-.22.1-.62.29-1.2-.44.65-.73,1.05-.87,1.2-.43.5-.81.75-1.14.75-.43,0-.64-.36-.64-1.07,0-.41.14-.9.41-1.47.31-.66.63-.99.97-.99.19,0,.29.05.29.15,0,.01-.03.08-.1.19-.06.11-.19.34-.39.67-.34.59-.5,1.03-.5,1.32,0,.41.12.61.37.61.19,0,.48-.23.87-.69s.84-1.16,1.36-2.1l.41-.75c.1-.1.2-.15.29-.15.12,0,.22.04.31.13.1.1.15.22.15.34,0-.01-.06.1-.19.34-.12.24-.28.55-.48.94-.46.85-.7,1.52-.7,2.01,0,.45.21.67.64.67.35,0,.76-.2,1.24-.61.31-.27.66-.65,1.05-1.15.14-.18.26-.32.35-.44.1-.11.16-.17.17-.17.04,0,.06.04.06.11s-.04.18-.12.32c-.37.6-.79,1.11-1.26,1.53-.63.56-1.21.84-1.74.84Z"/>
  <path class="cls-2" d="M28.41,16.43c-.34,0-.5-.22-.5-.65,0-.28.06-.64.17-1.07.13-.43.33-.9.6-1.41.3-.56.59-.96.87-1.2.3-.25.57-.38.81-.38.14,0,.21.04.21.13,0,.03-.02.06-.06.1-.36.41-.8,1.04-1.32,1.89-.58.99-.87,1.67-.87,2.03,0,.13.05.19.15.19.71,0,1.67-.92,2.87-2.75.09-.14.18-.28.27-.42.09-.14.2-.29.33-.46.06-.04.15-.06.25-.06.21,0,.31.08.31.25-.46.73-.7,1.41-.7,2.06,0,.43.19.65.56.65.28,0,.59-.27.91-.82.12-.2.22-.4.31-.59.09-.2.17-.41.23-.61-.27-.88-.41-1.37-.41-1.47,0-.19.08-.29.25-.29.21,0,.37.11.5.34.13.22.19.44.19.67s-.06.47-.17.73c.17.74.46,1.11.89,1.11.18,0,.34-.06.48-.19.15-.13.28-.27.39-.42.12-.15.21-.26.27-.32.04-.04.08-.06.12-.06.09,0,.14.04.14.13,0,.01-.01.04-.04.08-.01.03-.01.03,0,.02-.53.75-1.01,1.13-1.43,1.13-.19,0-.4-.07-.62-.21-.21-.15-.36-.4-.46-.73-.05.24-.14.47-.25.69-.1.22-.22.41-.35.59-.35.5-.72.75-1.12.75s-.68-.18-.87-.54c-.17-.29-.23-.64-.19-1.05-.34.46-.75.9-1.24,1.32-.63.57-1.13.86-1.49.86Z"/>
  <path class="cls-2" d="M38.58,13.2c.37,0,.81-.17,1.3-.5.48-.34.72-.69.72-1.05,0-.25-.08-.38-.25-.38-.26,0-.96.59-2.11,1.78.06.1.18.15.35.15ZM37.7,11.73c.46-.29.99-.7,1.59-1.22.59-.52,1.2-1.1,1.82-1.72,1.42-1.44,2.13-2.51,2.13-3.21,0-.27-.11-.4-.33-.4-.32,0-.84.29-1.55.88-.61.51-1.19,1.18-1.76,2.03-.57.84-1.1,1.78-1.59,2.81-.12.24-.2.43-.25.57-.04.14-.06.23-.06.27ZM39.82,16.01c-.3,0-.57-.1-.81-.29-.25-.19-.46-.43-.64-.71-.18-.29-.32-.59-.43-.88-.1-.31-.15-.56-.15-.76-.15.18-.33.36-.52.55s-.36.38-.5.55c-.19.23-.33.56-.41.99,0,.01-.01.06-.04.13-.01.06-.02.11-.02.13-.15.06-.3.1-.45.1-.28,0-.43-.06-.43-.19,0-.29.27-1.05.81-2.27.4-.9.82-1.77,1.26-2.6.44-.83.93-1.67,1.47-2.52,1.58-2.48,2.86-3.73,3.85-3.73.58,0,.87.26.87.78,0,.92-.81,2.2-2.44,3.84-.52.52-1.1,1.06-1.74,1.61-.65.54-1.33,1.08-2.05,1.62-.13.27-.25.53-.37.78-.1.25-.2.51-.29.76l2.01-1.95c.49-.48.91-.83,1.26-1.03.36-.2.65-.31.85-.31.34,0,.5.24.5.73s-.35.97-1.05,1.45c-.31.2-.65.37-1.01.5-.35.13-.67.19-.97.19.14.61.38,1.06.72,1.36.34.28.69.42,1.07.42.75,0,1.57-.58,2.46-1.74.08-.11.15-.17.23-.17.06,0,.1.03.1.1s-.03.13-.08.19c-.31.45-.75.92-1.32,1.41-.34.31-.64.53-.91.67-.27.14-.5.22-.7.25h-.08s-.05.02-.08.02Z"/>
  <path class="cls-2" d="M43.15,13.47c.34-.14.68-.39,1.05-.75.43-.41.64-.76.64-1.07,0-.15-.08-.23-.23-.23-.21,0-.49.29-.85.88-.32.48-.52.87-.6,1.17ZM43.8,15.96c-.43,0-.8-.12-1.12-.36-.32-.24-.48-.65-.48-1.22,0-.34.08-.71.23-1.11.15-.41.36-.79.62-1.15.27-.36.57-.65.89-.88.32-.23.65-.34.99-.34.13,0,.24.04.33.13.1.09.15.22.15.4,0,.4-.3.87-.91,1.43-.25.23-.5.43-.77.61-.26.18-.5.31-.72.38-.05.17-.08.36-.08.57,0,.29.07.56.21.8.14.24.37.36.68.36.39,0,.74-.11,1.07-.32.32-.22.62-.48.89-.78.27-.32.51-.61.72-.88.09-.13.18-.19.27-.19.05,0,.08.03.08.08,0,.03,0,.06-.02.1-.01.03-.03.05-.04.08-.22.31-.47.64-.76.99-.28.36-.61.66-.97.92s-.78.38-1.26.38Z"/>
  <path class="cls-1" d="M16.24,10.9c-.88-.66-.73-2.37.36-2.71.69-.16,1.13.49.83,1.08-.02.04-.05.1-.06.12,0-.01,0-.03-.02-.04-.02-.02-.04,0-.05,0,.03-.04.07-.08.1-.12.81-.77,1.66.3,1.13,1.09-.46.74-1.51,1.09-2.29.57Z"/>
</svg>