<?xml version="1.0" encoding="UTF-8"?>
<svg id="Layer_1" data-name="Layer 1" xmlns="http://www.w3.org/2000/svg" viewBox="0 0 242.45 210.45">
  <defs>
    <style>
      .cls-1 {
        fill: #d8efef;
      }

      .cls-2 {
        fill: #f8e7e8;
      }

      .cls-3 {
        fill: #010101;
        fill-rule: evenodd;
      }
    </style>
  </defs>
  <path class="cls-2" d="M74.09,139.22c15.55-4.03,22.79-11.48,27.62,7.2,4.84,18.68-3.85,37.09-19.4,41.12-15.55,4.03-56.53-6.25-53.17-26.44,2.33-14.02,29.39-17.84,44.95-21.87Z"/>
  <path class="cls-1" d="M141.48,98.98c9.82-26.53,34.92-51.55,69.07-42.36,32.8,8.82,22.21,32.81,12.39,59.34-9.82,26.53-73.13,68.5-98.93,43.35-17.92-17.46,7.65-33.8,17.46-60.33Z"/>
  <path class="cls-3" d="M177.35,98.21c-.62-3.2-2.16-4.71-4.2-5.03-4.25-.68-10.68,3.55-15.71,8.33-4.97,4.72-8.61,9.92-7.37,11.35,1.45,1.67,8.95-1.28,27.29-14.64h0ZM84.71,173.76c1.35-1.31,2.55-2.89,3.43-4.72,1.08-2.26,1.55-3.8,1.56-4.55,0-.17,0-.26,0-.26-.02,0-.11.05-.26.17-.66.52-1.72,1.95-3,4.4-.98,1.87-1.68,3.7-1.72,4.96h0ZM79.51,161.81s-.02,0-.03.02c.04,0,.06,0,.03-.02ZM61.57,175.15c.06,0,.11.02.04-.03-.04-.04-.05-.02-.04.03ZM69.32,164.4c.56-.4,1.22-.86,2.01-1.39.82-.55,1.17-1.15,1.2-1.59,0-.16-.03-.28-.1-.34-.06-.06-.17-.08-.32-.05-.48.1-1.17.65-1.95,1.94-.25.42-.53.9-.84,1.43h0ZM64.24,161.24s0,0,0,.02c0-.01,0-.02,0-.02ZM55.19,157.94c.95-.1,1.82-.22,2.66-.59,1.01-.44,1.49-.95,1.6-1.36.04-.15.02-.27-.04-.37-.07-.1-.19-.17-.37-.21-.49-.09-1.27.14-2.18.96-.29.26-.62.57-.97.9-.22.21-.46.44-.7.66ZM202.34.15c.11-.16.33-.19.48-.08.16.11.19.33.08.48-4.12,5.82-8.24,12.18-12.45,18.66-10.26,15.82-21.01,32.38-33.33,43.73-5.82,5.36-11.58,10.42-17.22,15.37-15.28,13.41-29.65,26.03-41.85,41.73,0,.01-.02.02-.03.04-2.46,2.64-4.75,5.3-6.99,7.9-7.95,9.24-15.27,17.74-27.72,22.41-1.31.49-2.69.89-4.07,1.29-2.29.67-4.61,1.34-6.61,2.42-1.39.76-2.27,1.28-2.93,1.67-1.85,1.1-2.17,1.29-7.53,3-1.57.5-2.65,1.2-3.33,1.98-.54.63-.82,1.32-.85,1.99-.04.68.16,1.35.55,1.96.43.66,1.09,1.24,1.95,1.67,6.39-7.13,10.41-7.97,13.54-8.31.49-.44.96-.88,1.38-1.28.34-.33.66-.63.98-.92,1.09-.97,2.09-1.25,2.77-1.12.36.07.64.25.81.5.18.26.23.58.15.93-.15.6-.76,1.29-1.99,1.83-1.07.47-2.15.57-3.34.69l-.46.05c-.86.75-1.83,1.49-2.92,2.07-.9.48-1.65.85-2.33,1.18-1.57.77-2.75,1.34-4.59,2.72.81,1.2,1,2.27.77,3.07-.11.4-.33.73-.63.98-.29.25-.66.4-1.06.46-.72.09-1.58-.13-2.42-.77.06.44.18.84.36,1.2.3.61.77,1.1,1.34,1.48.14.1.28.18.41.26,1.46.87,2.78.98,3.93.55,1.18-.43,2.22-1.42,3.11-2.74.15-.22.29-.44.42-.66.85-1.44,4.37-3.27,7.2-4.75,1.19-.62,2.25-1.17,2.94-1.61,1.68-1.06,2.75-1.49,3.31-1.53.42-.03.66.12.75.39.07.22,0,.49-.19.78-.39.59-1.41,1.45-2.81,2.09-2.59,1.19-2.87,2.5-3.04,3.29-.04.21-.08.39-.15.54-.28.65-.79.72-2.68-.11-1.4-.61-2.8.82-4.1,2.26,1.04.39,1.6.97,1.79,1.53.12.36.1.71-.04,1.02-.13.3-.37.56-.7.74-.66.36-1.69.39-2.84-.26-.45-.25-.82-.32-1.09-.25-.13.04-.24.11-.32.21-.08.1-.13.24-.15.4-.03.37.11.83.49,1.3.81,1.01,2.03,1.64,3.35,1.92,1.5.32,3.12.21,4.42-.27,3.04-1.12,4.13-2.88,4.99-4.26.37-.6.7-1.13,1.13-1.54,1.25-1.18,1.95-1.96,2.54-2.63.71-.8,1.28-1.44,2.41-2.35.6-1.07,1.16-2.06,1.64-2.85.9-1.48,1.77-2.13,2.41-2.26.39-.08.71.01.94.23.22.21.33.52.31.89-.04.62-.48,1.44-1.5,2.12-1.48.99-2.5,1.73-3.26,2.34-1.42,2.52-3.09,5.47-4.59,7.37.74.02,1.31.16,1.72.39.43.23.71.55.85.91.14.36.15.76.05,1.16-.14.54-.49,1.08-.99,1.51-.55.48-1.27.83-1.95.94-.43.07-.85.05-1.2-.08-.38-.15-.7-.42-.88-.84v-.02c-.16-.35-.22-.81-.15-1.39-.48.64-.59,1.27-.42,1.81.12.37.37.7.72.97.37.28.85.49,1.42.6,1.66.33,4.01-.19,6.4-2.23,2.13-1.82,2.25-3.32,2.39-5.02.16-1.99.34-4.23,3.41-7.46,1.66-1.75,3.02-2.84,3.77-3.21.39-.19.69-.22.9-.08.24.17.28.47.1.91-.28.67-1.21,1.94-2.97,3.84-1.15,1.24-2.11,2.55-2.43,3.92-.31,1.34-.01,2.77,1.32,4.3.35.4.58,1.3.51,1.94-.03.23-.09.45-.2.61-.14.2-.34.33-.6.35-.35.02-.81-.18-1.4-.74-.5-.48-1.03-.56-1.42-.41-.2.07-.37.21-.47.37-.1.16-.15.34-.12.53.06.39.43.81,1.27,1.13,1.84.7,5.01.04,8.06-1.81.85-.52,1.69-1.13,2.49-1.82-.03-.2-.04-.41-.03-.64.05-1.37.78-3.3,1.8-5.26,1.33-2.54,2.45-4.06,3.18-4.63.38-.29.71-.38.97-.26.28.12.43.43.42.9,0,.84-.5,2.49-1.63,4.85-1,2.08-2.38,3.84-3.94,5.27.05.13.12.24.21.33.24.24.65.35,1.26.28,1.31-.15,3.42-1.1,6.58-3.17,4.42-2.9,12.54-7.64,21.21-12.21,6.87-3.62,14.09-7.15,20.1-9.58,7.19-2.91,13.77-2.89,19.85-2.88,6.22.01,11.91.03,17.11-3.14,8.2-4.99,7.31-14.21,6.4-23.74-.39-4.09-.79-8.23-.49-12.14v-.03c.65-4.07.74-7.18.39-9.49-18.65,13.44-26.35,16.29-27.92,14.49-1.5-1.73,2.19-7.35,7.42-12.31,5.17-4.9,11.81-9.22,16.3-8.51,2.26.36,3.97,1.94,4.7,5.28,14.21-10.4,34.8-26.93,63.91-52.19.15-.13.37-.11.49.03.13.15.11.37-.03.49-29.18,25.32-49.89,41.87-64.25,52.27.42,2.44.36,5.73-.32,10.04-.29,3.85.1,7.95.49,12,.93,9.75,1.83,19.18-6.73,24.4-5.37,3.27-11.15,3.26-17.48,3.24-6.01-.01-12.52-.03-19.58,2.83-5.99,2.42-13.19,5.94-20.04,9.55-8.66,4.57-16.76,9.29-21.16,12.18-3.26,2.14-5.47,3.12-6.89,3.28-.85.1-1.45-.08-1.84-.48-.1-.1-.18-.21-.25-.34-.76.65-1.56,1.21-2.36,1.7-3.23,1.96-6.64,2.63-8.67,1.87-1.11-.42-1.61-1.06-1.71-1.67-.06-.37.03-.73.22-1.02.19-.29.47-.51.82-.64.62-.23,1.42-.13,2.14.56.43.41.71.56.87.55.03,0,.05-.02.07-.05h0c.05-.07.07-.17.09-.3.05-.48-.1-1.13-.34-1.41-1.5-1.73-1.83-3.37-1.47-4.92.35-1.52,1.37-2.92,2.6-4.24,1.65-1.78,2.53-2.96,2.81-3.58h-.02c-.69.35-1.97,1.39-3.57,3.08-2.89,3.05-3.07,5.16-3.22,7.03-.15,1.84-.28,3.48-2.63,5.49-2.58,2.21-5.15,2.75-6.99,2.39-.67-.13-1.26-.39-1.71-.73-.47-.36-.8-.8-.96-1.31-.26-.8-.08-1.72.67-2.62.6-.72.92-.89,1.16-.69.2.17.14.43.06.77-.04.16-.08.34-.11.52-.07.49-.03.85.08,1.11h0c.1.25.28.4.49.48.24.09.53.1.84.05.56-.09,1.16-.38,1.61-.78.39-.34.66-.75.77-1.16.07-.26.07-.5-.02-.72-.09-.21-.26-.41-.54-.56-.44-.24-1.13-.36-2.12-.29-.09,0-.19-.02-.27-.09-.14-.13-.16-.35-.03-.49,1.23-1.38,2.65-3.73,3.96-6.01-.27.28-.52.56-.79.86-.61.68-1.32,1.48-2.58,2.68-.36.34-.67.84-1.02,1.4-.91,1.46-2.07,3.34-5.33,4.54-1.41.52-3.17.65-4.8.29-1.46-.32-2.83-1.02-3.74-2.17-.5-.62-.69-1.27-.64-1.8.03-.3.13-.56.29-.77.17-.22.4-.37.69-.45.43-.11.98-.04,1.61.32.91.51,1.68.51,2.16.25.19-.1.33-.25.4-.41.07-.15.08-.33.02-.52-.15-.46-.72-.94-1.85-1.25-.05-.01-.1-.04-.14-.08-.14-.13-.15-.35-.03-.49l.1-.12c1.53-1.72,3.2-3.57,5.15-2.72,1.37.6,1.68.65,1.77.47.04-.09.07-.24.11-.41.19-.91.52-2.44,3.43-3.77,1.28-.59,2.18-1.34,2.52-1.85l.06-.1c-.46.04-1.41.44-2.99,1.43-.68.43-1.77,1-2.99,1.63-2.75,1.43-6.17,3.22-6.92,4.48-.15.25-.29.48-.44.7-.97,1.43-2.12,2.51-3.44,3-1.35.5-2.86.38-4.53-.61-.15-.09-.3-.18-.44-.28-.66-.45-1.21-1.02-1.57-1.74-.33-.66-.5-1.43-.47-2.32,0-.09.04-.17.11-.24.14-.13.36-.13.49,0,.87.89,1.77,1.22,2.47,1.13.28-.04.52-.14.71-.3.19-.16.33-.37.4-.64.19-.66-.02-1.62-.86-2.74-.11-.15-.08-.37.07-.48,2.05-1.57,3.3-2.18,4.98-3,.67-.33,1.42-.69,2.31-1.17.7-.37,1.35-.82,1.96-1.29-2.89.46-6.6,1.84-12.19,8.13-.1.11-.26.15-.4.09-1.09-.49-1.94-1.2-2.48-2.03-.48-.73-.71-1.55-.66-2.38.05-.83.37-1.66,1.02-2.41.75-.87,1.94-1.65,3.64-2.19,5.29-1.68,5.6-1.87,7.39-2.93.67-.4,1.55-.92,2.96-1.69,2.07-1.12,4.42-1.81,6.75-2.48,1.38-.4,2.75-.8,4.02-1.28,12.28-4.61,19.54-13.05,27.44-22.22,2.24-2.6,4.53-5.26,7.01-7.92,12.24-15.74,26.64-28.38,41.94-41.82,5.63-4.94,11.39-10,17.21-15.35,12.26-11.29,22.98-27.82,33.22-43.6,4.21-6.49,8.34-12.86,12.46-18.68Z"/>
</svg>