<svg width="426" height="252" viewBox="0 0 426 252" fill="none" xmlns="http://www.w3.org/2000/svg">
<g clip-path="url(#clip0_1_13)">
<mask id="mask0_1_13" style="mask-type:luminance" maskUnits="userSpaceOnUse" x="118" y="19" width="91" height="124">
<path d="M143.9 39.27C138.4 52.57 140.6 65.57 136.9 76.57C133.2 87.57 127.4 98.87 120.5 119.27C111.7 145.17 140.4 148.27 151.3 133.07C162.1 117.87 159.2 111.17 157.3 101.57C154.4 87.27 157.6 79.87 178.6 68.17C220 44.97 211.4 30.17 197.5 23.57C188.2 20.37 180.4 19.07 174 19.07C155.8 18.87 148 29.47 143.9 39.27Z" fill="white"/>
</mask>
<g mask="url(#mask0_1_13)">
<path d="M220.1 18.87H111.8V148.17H220.1V18.87Z" fill="url(#paint0_linear_1_13)"/>
</g>
<path d="M213.4 21.37C208.4 19.67 205.8 14.27 207.5 9.37C209.2 4.37 214.6 1.77 219.5 3.47C224.5 5.17 227.1 10.57 225.4 15.47C223.7 20.37 218.3 23.07 213.4 21.37Z" fill="#A2D2CA"/>
<path d="M151 21.57C148.2 20.57 146.7 17.57 147.6 14.67C148.6 11.87 151.6 10.37 154.5 11.27C157.3 12.27 158.8 15.27 157.9 18.17C156.9 20.97 153.8 22.47 151 21.57Z" fill="#A2D2CA"/>
<path d="M163.1 16.17C160 15.07 158.3 11.77 159.4 8.56999C160.5 5.46999 163.8 3.76999 167 4.86999C170.1 5.96999 171.8 9.26999 170.7 12.47C169.6 15.57 166.3 17.17 163.1 16.17Z" fill="#A2D2CA"/>
<path d="M177.9 12.87C174.4 11.67 172.6 7.97 173.8 4.47C175 0.969996 178.7 -0.830003 182.2 0.369997C185.7 1.57 187.5 5.27 186.3 8.77C185.1 12.17 181.3 14.07 177.9 12.87Z" fill="#A2D2CA"/>
<path d="M195.5 13.97C191.9 12.77 189.9 8.76999 191.1 5.16999C192.3 1.56999 196.3 -0.430006 199.9 0.769994C203.5 1.96999 205.5 5.96999 204.2 9.56999C203.1 13.27 199.2 15.27 195.5 13.97Z" fill="#A2D2CA"/>
<mask id="mask1_1_13" style="mask-type:luminance" maskUnits="userSpaceOnUse" x="168" y="104" width="80" height="136">
<path d="M198.9 150.67C204.1 174.17 200.7 181.37 188.1 188.77C179.6 193.77 172.7 195.97 168.6 214.27C164.5 232.47 185.9 251.87 199.4 228.07C210 209.37 214.6 197.57 220.3 187.47C226 177.37 237.2 170.27 243.5 157.37C249.8 144.47 252.4 125.37 219.6 106.87C216.4 105.57 213.1 104.67 210 104.67C199.2 104.67 190.9 114.77 198.9 150.67Z" fill="white"/>
</mask>
<g mask="url(#mask1_1_13)">
<path d="M252.2 104.67H164.4V251.87H252.2V104.67Z" fill="url(#paint1_linear_1_13)"/>
</g>
<g opacity="0.2">
<path d="M210.6 93.67C215.2 96.27 221 94.67 223.5 90.07C226.1 85.47 224.5 79.67 219.9 77.17C215.3 74.57 209.5 76.17 207 80.77C204.4 85.27 206 91.07 210.6 93.67Z" fill="#B9BABB"/>
<path d="M251.9 140.37C254.5 141.87 257.8 140.97 259.3 138.27C260.8 135.67 259.9 132.37 257.3 130.87C254.7 129.37 251.4 130.27 249.9 132.87C248.4 135.57 249.3 138.87 251.9 140.37Z" fill="#B9BABB"/>
<path d="M247.9 127.67C250.8 129.27 254.4 128.27 256 125.37C257.6 122.47 256.6 118.87 253.7 117.27C250.8 115.67 247.2 116.67 245.6 119.57C244 122.47 245 126.07 247.9 127.67Z" fill="#B9BABB"/>
<path d="M240.5 114.47C243.7 116.27 247.7 115.17 249.5 111.97C251.3 108.77 250.2 104.77 247 102.97C243.8 101.17 239.8 102.27 238 105.47C236.2 108.67 237.4 112.67 240.5 114.47Z" fill="#B9BABB"/>
<path d="M227.9 102.07C231.3 103.97 235.5 102.77 237.4 99.47C239.3 96.07 238.1 91.87 234.8 89.97C231.5 88.07 227.2 89.27 225.3 92.57C223.4 95.97 224.5 100.17 227.9 102.07Z" fill="#B9BABB"/>
</g>
<path d="M63.3 98.57C63.3 100.77 63 103.27 62.3 105.77C61.6 108.37 60.5 110.77 58.9 113.07C56.8 116.07 54.2 118.27 51 119.77C47.8 121.27 43.9 121.97 39.4 121.97H32.9L41.3 85.17H48.8C51.5 85.17 53.8 85.57 55.6 86.27C57.4 86.97 58.9 87.97 60.1 89.17C61.3 90.47 62.1 91.87 62.6 93.47C63.1 95.17 63.3 96.77 63.3 98.57ZM77.5 97.37C77.5 92.27 75.4 88.17 71.3 85.27C67.1 82.27 61.8 80.87 55.2 80.87H18.5L17.6 84.67C18.8 84.77 20 84.87 21.4 85.17C22.8 85.37 24.1 85.77 25.3 86.17C26.1 86.47 26.7 86.97 27 87.67C27.3 88.37 27.5 89.07 27.5 89.87C27.5 90.27 27.5 90.67 27.4 91.07C27.3 91.47 27.3 91.87 27.2 92.27L13.4 152.17C13.1 153.57 12.6 154.67 11.9 155.77C11.2 156.77 10.1 157.57 8.7 158.07C7.9 158.37 6.6 158.67 4.8 158.87C3 159.07 1.7 159.17 0.7 159.27L0 163.07H35.3L36.2 159.27C34.8 159.27 33.2 159.07 31.5 158.87C29.7 158.67 28.6 158.37 28 158.07C27.1 157.67 26.5 157.17 26.1 156.47C25.8 155.77 25.6 155.07 25.6 154.17C25.6 153.87 25.6 153.57 25.7 153.17C25.7 152.77 25.8 152.37 25.9 152.07L31.8 126.67H41.8C46.4 126.67 50.8 126.07 55 124.77C59.2 123.47 63 121.57 66.4 118.97C69.6 116.57 72.3 113.47 74.4 109.87C76.5 106.27 77.5 102.07 77.5 97.37Z" fill="black"/>
<path d="M128.4 109.37C128 108.27 127.4 107.37 126.5 106.57C125.7 105.87 124.7 105.27 123.6 104.97C122.4 104.67 121.2 104.47 120 104.47C117.4 104.47 114.9 105.27 112.6 106.87C110.2 108.47 106.7 111.27 102.2 115.17H101.9C101.9 111.77 101.2 109.27 99.9 107.57C98.6 105.87 96.4 105.07 93.3 105.07C91.6 105.07 89.7 105.37 87.3 106.07C85 106.77 82.3 107.77 79.3 109.07L78.4 112.77C79.1 112.57 80.2 112.37 81.5 112.07C82.8 111.77 83.9 111.67 84.7 111.67C86.9 111.67 88.4 112.07 89.1 112.77C89.8 113.47 90.2 114.97 90.2 117.07C90.2 117.97 90 119.37 89.7 121.17C89.3 123.07 89.1 124.37 88.9 125.37L80.3 162.97H91.1L100.4 121.47C102.6 119.07 104.6 117.07 106.5 115.57C108.4 114.07 110.1 112.97 111.6 112.27C113.1 111.57 114.4 111.07 115.4 110.77C116.5 110.57 117.2 110.37 117.7 110.37C117.1 111.87 116.5 113.27 115.9 114.77C115.3 116.27 115 117.57 115 118.77C115 120.07 115.5 121.17 116.6 122.27C117.6 123.27 119.2 123.87 121.3 123.87C122.8 123.87 124 123.57 124.9 123.07C125.7 122.47 126.5 121.67 127.2 120.67C127.8 119.87 128.2 118.77 128.5 117.47C128.8 116.17 129 114.97 129 113.87C129 111.97 128.8 110.37 128.4 109.37Z" fill="black"/>
<path d="M176.4 125.07C176.4 129.47 176 133.77 175.1 137.97C174.2 142.17 172.9 145.87 171.3 149.07C169.6 152.37 167.5 155.17 164.8 157.27C162.1 159.47 159.1 160.47 155.7 160.47C151.8 160.47 149 159.07 147.1 156.17C145.2 153.37 144.2 149.17 144.2 143.67C144.2 140.17 144.6 136.37 145.3 132.27C146 128.17 147.2 124.47 148.8 121.07C150.8 116.67 153.3 113.47 156.1 111.47C158.9 109.47 162 108.47 165.2 108.47C168.9 108.47 171.7 109.87 173.6 112.57C175.4 115.47 176.4 119.57 176.4 125.07ZM188.2 127.27C188.2 120.47 186.3 114.97 182.4 110.77C178.5 106.57 173.2 104.47 166.3 104.47C161.3 104.47 156.7 105.47 152.4 107.57C148.1 109.67 144.6 112.37 141.7 115.67C138.8 119.07 136.6 122.97 134.9 127.37C133.2 131.77 132.4 136.57 132.4 141.77C132.4 148.77 134.4 154.27 138.4 158.47C142.4 162.57 147.6 164.67 154 164.67C159.5 164.67 164.4 163.57 168.5 161.47C172.7 159.37 176.3 156.47 179.2 152.97C182.1 149.57 184.4 145.57 185.9 140.97C187.4 136.37 188.2 131.77 188.2 127.27Z" fill="black"/>
<path d="M252.8 80.87L251.9 84.67C252.9 84.77 254 84.87 255.4 85.07C256.8 85.27 258 85.57 259.1 85.97C260.2 86.27 261.1 86.77 261.9 87.27C262.6 87.77 263 88.47 263 89.27C263 89.67 262.7 90.67 262.2 92.17C261.7 93.77 260.3 96.47 258 100.37C255.5 104.57 251.5 111.07 245.9 120.07C240.3 129.07 234.9 137.77 229.5 146.07C227.2 130.27 225.5 118.07 224.2 109.37C223 100.67 222.1 94.47 221.6 90.67C221.6 90.47 221.6 90.17 221.5 89.67C221.5 89.27 221.4 88.77 221.4 88.47C221.4 87.27 222.2 86.47 223.9 85.87C225.6 85.27 228.5 84.87 232.5 84.67L233.4 80.87H200.2L199.3 84.67C200.3 84.77 201.5 84.97 202.7 85.27C203.9 85.57 204.9 86.07 205.8 86.77C206.9 87.57 207.7 88.47 208.3 89.27C208.9 90.17 209.2 91.17 209.4 92.47C210.1 96.67 211.5 106.47 213.6 121.67C215.7 136.87 217.7 150.97 219.6 163.97H224.4C233.1 149.87 241.6 136.37 249.8 123.27C258 110.17 264.2 100.57 268.2 94.47C269.3 92.77 270.4 91.27 271.4 90.07C272.4 88.87 273.8 87.77 275.4 86.87C276.5 86.27 277.8 85.77 279.3 85.37C280.8 84.97 282.1 84.77 283.1 84.77L284 80.97H252.8V80.87Z" fill="#00957F"/>
<path d="M309 125.07C309 129.47 308.6 133.77 307.7 137.97C306.8 142.17 305.5 145.87 303.9 149.07C302.2 152.37 300.1 155.17 297.4 157.27C294.7 159.47 291.7 160.47 288.3 160.47C284.4 160.47 281.6 159.07 279.7 156.17C277.8 153.37 276.8 149.17 276.8 143.67C276.8 140.17 277.2 136.37 277.9 132.27C278.6 128.17 279.8 124.47 281.4 121.07C283.4 116.67 285.9 113.47 288.7 111.47C291.5 109.47 294.5 108.47 297.7 108.47C301.4 108.47 304.2 109.87 306.1 112.57C308 115.47 309 119.57 309 125.07ZM320.8 127.27C320.8 120.47 318.9 114.97 315 110.77C311.1 106.57 305.8 104.47 298.9 104.47C293.9 104.47 289.3 105.47 285 107.57C280.7 109.67 277.2 112.37 274.3 115.67C271.4 119.07 269.2 122.97 267.5 127.37C265.8 131.77 265 136.57 265 141.77C265 148.77 267 154.27 271 158.47C275 162.57 280.2 164.67 286.6 164.67C292.1 164.67 297 163.57 301.1 161.47C305.3 159.37 308.9 156.47 311.8 152.97C314.7 149.57 317 145.57 318.5 140.97C320 136.37 320.8 131.77 320.8 127.27Z" fill="#00957F"/>
<path d="M367.6 115.17C367.6 118.77 366.8 121.87 365.3 124.47C363.7 127.07 361.4 129.17 358.2 130.87C356 132.07 353.1 132.97 349.8 133.67C346.4 134.37 343.4 134.97 340.7 135.27C341.7 127.67 344.2 121.37 348.1 116.27C352 111.17 356.3 108.67 360.9 108.67C361.7 108.67 362.5 108.77 363.3 108.87C364.1 108.97 364.8 109.27 365.5 109.77C366.2 110.17 366.7 110.87 367.1 111.67C367.4 112.47 367.6 113.67 367.6 115.17ZM378.2 116.57C378.2 113.07 376.9 110.17 374.2 107.87C371.5 105.57 367.4 104.47 361.9 104.47C356.9 104.47 352.3 105.57 348.2 107.77C344.1 109.97 340.6 112.87 337.7 116.47C334.8 120.17 332.5 124.17 331 128.57C329.5 132.97 328.7 137.67 328.7 142.47C328.7 149.47 330.5 154.87 334.1 158.77C337.7 162.57 342.9 164.47 349.7 164.47C354.7 164.47 359.5 163.07 364.1 160.27C368.7 157.47 372.6 153.67 375.7 148.97L372.4 146.57C369.5 150.37 366.6 153.27 363.7 155.17C360.8 157.07 357.3 158.07 353.5 158.07C349.1 158.07 345.8 156.47 343.6 153.27C341.3 150.07 340.2 145.37 340.2 139.27C344.6 138.77 348.7 138.07 352.3 137.27C356 136.47 359.6 135.37 363.2 134.07C368.1 132.37 371.8 129.97 374.4 127.07C376.9 124.17 378.2 120.67 378.2 116.57Z" fill="#00957F"/>
<path d="M406.5 162.97C408.9 162.17 411.4 161.37 414.1 160.27L415.1 156.07C414.1 156.47 412.7 156.77 410.9 157.07C409.1 157.27 407.7 157.47 406.7 157.47C403.9 157.47 402 156.97 400.9 155.97C399.8 154.97 399.3 153.47 399.3 151.27C399.3 150.27 399.4 149.17 399.6 147.77C399.8 146.37 400.1 144.97 400.5 143.47L408 111.57H424L425.2 106.27H409.1L413 89.37H402.6L398.6 106.27H388L386.8 111.57H397.1L388.1 150.17C387.9 151.17 387.8 152.07 387.6 152.87C387.5 153.67 387.4 154.47 387.4 155.37C387.4 158.17 388.2 160.27 389.9 161.77C391.6 163.27 394.3 163.97 397.9 163.97C401.3 164.17 404.1 163.77 406.5 162.97Z" fill="#00957F"/>
<path d="M51 184.57H57.7C63.6 184.67 66.6 187.97 66.6 194.27C66.6 200.57 63.5 203.87 57.7 203.97H51V184.57ZM52.8 202.47H56.8C62.4 202.47 64.8 200.17 64.8 194.37C64.8 188.57 62.4 186.17 56.8 186.27H52.8V202.47Z" fill="black"/>
<path d="M70.9 197.47C70.9 199.97 72.2 202.97 75.5 202.97C78 202.97 79.4 201.47 79.9 199.37H81.6C80.9 202.57 79 204.37 75.5 204.37C71 204.37 69.2 200.97 69.2 196.97C69.2 193.27 71.1 189.57 75.5 189.57C79.9 189.57 81.8 193.57 81.7 197.47H70.9ZM80 195.97C79.9 193.37 78.3 190.97 75.5 190.97C72.7 190.97 71.1 193.47 70.9 195.97H80Z" fill="black"/>
<path d="M92.6 189.97H94.2V192.67H94.3C95.1 190.77 97.1 189.57 99.3 189.57C103.6 189.57 105.6 193.07 105.6 196.97C105.6 200.87 103.6 204.37 99.3 204.37C97.2 204.37 95.2 203.27 94.4 201.27H94.3V209.17H92.6V189.97ZM99.3 190.97C95.5 190.97 94.4 193.77 94.4 196.97C94.4 199.87 95.7 202.97 99.3 202.97C102.6 202.97 103.9 199.87 103.9 196.97C103.9 194.07 102.5 190.97 99.3 190.97Z" fill="black"/>
<path d="M108.8 189.97H110.4V193.27H110.5C111.4 190.97 113.3 189.67 115.8 189.77V191.47C112.7 191.27 110.6 193.57 110.6 196.47V203.97H108.9V189.97H108.8Z" fill="black"/>
<path d="M130 196.97C130 200.97 127.7 204.37 123.4 204.37C119.1 204.37 116.8 200.97 116.8 196.97C116.8 192.97 119.1 189.57 123.4 189.57C127.7 189.57 130 192.97 130 196.97ZM118.5 196.97C118.5 199.97 120.1 202.97 123.4 202.97C126.7 202.97 128.3 199.97 128.3 196.97C128.3 193.97 126.7 190.97 123.4 190.97C120.1 190.97 118.5 193.97 118.5 196.97Z" fill="black"/>
<path d="M138.6 191.37H135.8V203.97H134.1V191.37H131.7V189.97H134.1V188.67C134.1 186.27 134.8 184.57 137.5 184.57C138 184.57 138.4 184.57 138.9 184.67V186.17C138.4 186.07 138.1 186.07 137.6 186.07C135.7 186.07 135.7 187.27 135.7 188.77V189.97H138.5V191.37H138.6Z" fill="black"/>
<path d="M141.7 197.47C141.7 199.97 143 202.97 146.3 202.97C148.8 202.97 150.2 201.47 150.7 199.37H152.4C151.7 202.57 149.8 204.37 146.3 204.37C141.8 204.37 140 200.97 140 196.97C140 193.27 141.9 189.57 146.3 189.57C150.7 189.57 152.6 193.57 152.5 197.47H141.7ZM150.8 195.97C150.7 193.37 149.1 190.97 146.3 190.97C143.5 190.97 141.9 193.47 141.7 195.97H150.8Z" fill="black"/>
<path d="M163.8 194.07C163.7 191.97 162.1 190.97 160.1 190.97C158.6 190.97 156.8 191.57 156.8 193.37C156.8 194.87 158.5 195.47 159.7 195.77L162 196.27C164 196.57 166 197.67 166 200.17C166 203.27 163 204.37 160.4 204.37C157.1 204.37 154.9 202.87 154.6 199.37H156.3C156.4 201.67 158.2 202.87 160.4 202.87C162 202.87 164.2 202.17 164.2 200.17C164.2 198.57 162.7 197.97 161.1 197.57L158.9 197.07C156.7 196.47 155 195.67 155 193.27C155 190.37 157.8 189.27 160.3 189.27C163.1 189.27 165.3 190.77 165.5 193.77H163.8V194.07Z" fill="black"/>
<path d="M177.5 194.07C177.4 191.97 175.8 190.97 173.8 190.97C172.3 190.97 170.5 191.57 170.5 193.37C170.5 194.87 172.2 195.47 173.4 195.77L175.7 196.27C177.7 196.57 179.7 197.67 179.7 200.17C179.7 203.27 176.7 204.37 174.1 204.37C170.8 204.37 168.6 202.87 168.3 199.37H170C170.1 201.67 171.9 202.87 174.1 202.87C175.7 202.87 177.9 202.17 177.9 200.17C177.9 198.57 176.4 197.97 174.8 197.57L172.6 197.07C170.4 196.47 168.7 195.67 168.7 193.27C168.7 190.37 171.5 189.27 174 189.27C176.8 189.27 179 190.77 179.2 193.77H177.5V194.07Z" fill="black"/>
<path d="M182.8 184.57H184.5V187.37H182.8V184.57ZM182.8 189.97H184.5V204.07H182.8V189.97Z" fill="black"/>
<path d="M200.9 196.97C200.9 200.97 198.6 204.37 194.3 204.37C190 204.37 187.7 200.97 187.7 196.97C187.7 192.97 190 189.57 194.3 189.57C198.6 189.57 200.9 192.97 200.9 196.97ZM189.3 196.97C189.3 199.97 190.9 202.97 194.2 202.97C197.5 202.97 199.1 199.97 199.1 196.97C199.1 193.97 197.5 190.97 194.2 190.97C190.9 190.97 189.3 193.97 189.3 196.97Z" fill="black"/>
<path d="M204 189.97H205.7V192.37H205.8C206.4 190.67 208.3 189.57 210.3 189.57C214.3 189.57 215.4 191.67 215.4 194.97V203.97H213.7V195.17C213.7 192.77 212.9 190.97 210.1 190.97C207.3 190.97 205.7 193.07 205.7 195.77V203.97H204V189.97Z" fill="black"/>
<path d="M220.2 197.47C220.2 199.97 221.5 202.97 224.8 202.97C227.3 202.97 228.7 201.47 229.2 199.37H230.9C230.2 202.57 228.3 204.37 224.8 204.37C220.3 204.37 218.5 200.97 218.5 196.97C218.5 193.27 220.4 189.57 224.8 189.57C229.2 189.57 231.1 193.57 231 197.47H220.2ZM229.3 195.97C229.2 193.37 227.6 190.97 224.8 190.97C222 190.97 220.4 193.47 220.2 195.97H229.3Z" fill="black"/>
<path d="M233.9 184.57H235.6V204.07H233.9V184.57Z" fill="black"/>
<path d="M240.4 197.47C240.4 199.97 241.7 202.97 245 202.97C247.5 202.97 248.9 201.47 249.4 199.37H251.1C250.4 202.57 248.5 204.37 245 204.37C240.5 204.37 238.7 200.97 238.7 196.97C238.7 193.27 240.6 189.57 245 189.57C249.4 189.57 251.3 193.57 251.2 197.47H240.4ZM249.5 195.97C249.4 193.37 247.8 190.97 245 190.97C242.2 190.97 240.6 193.47 240.4 195.97H249.5Z" fill="black"/>
<path d="M262.2 189.97H263.8V192.67H263.9C264.7 190.77 266.7 189.57 268.9 189.57C273.2 189.57 275.2 193.07 275.2 196.97C275.2 200.87 273.2 204.37 268.9 204.37C266.8 204.37 264.8 203.27 264 201.27H263.9V209.17H262.2V189.97ZM268.9 190.97C265.1 190.97 264 193.77 264 196.97C264 199.87 265.3 202.97 268.9 202.97C272.2 202.97 273.5 199.87 273.5 196.97C273.5 194.07 272.1 190.97 268.9 190.97Z" fill="black"/>
<path d="M279.4 197.47C279.4 199.97 280.7 202.97 284 202.97C286.5 202.97 287.9 201.47 288.4 199.37H290.1C289.4 202.57 287.5 204.37 284 204.37C279.5 204.37 277.7 200.97 277.7 196.97C277.7 193.27 279.6 189.57 284 189.57C288.4 189.57 290.3 193.57 290.2 197.47H279.4ZM288.5 195.97C288.4 193.37 286.8 190.97 284 190.97C281.2 190.97 279.6 193.47 279.4 195.97H288.5Z" fill="black"/>
<path d="M305.5 204.07H303.9V201.37H303.8C303.1 203.17 300.8 204.47 298.8 204.47C294.5 204.47 292.5 200.97 292.5 197.07C292.5 193.17 294.5 189.67 298.8 189.67C300.9 189.67 302.9 190.77 303.7 192.77H303.8V184.67H305.5V204.07ZM298.8 202.97C302.5 202.97 303.7 199.87 303.7 196.97C303.7 194.07 302.4 190.97 298.8 190.97C295.5 190.97 294.2 194.07 294.2 196.97C294.2 199.87 295.5 202.97 298.8 202.97Z" fill="black"/>
<path d="M309.3 184.57H311V187.37H309.3V184.57ZM309.3 189.97H311V204.07H309.3V189.97Z" fill="black"/>
<path d="M324.8 194.37C324.3 192.27 323.1 190.97 320.8 190.97C317.5 190.97 315.9 193.97 315.9 196.97C315.9 199.97 317.5 202.97 320.8 202.97C322.9 202.97 324.7 201.27 324.9 198.97H326.6C326.1 202.37 323.9 204.37 320.8 204.37C316.5 204.37 314.2 200.97 314.2 196.97C314.2 192.97 316.5 189.57 320.8 189.57C323.8 189.57 326.1 191.17 326.5 194.37H324.8Z" fill="black"/>
<path d="M340.9 204.07H339.3V201.57H339.2C338.3 203.47 336.4 204.47 334.3 204.47C330.8 204.47 329.4 202.37 329.4 199.17V189.97H331.1V199.17C331.2 201.67 332.1 203.07 334.9 203.07C337.7 203.07 339.1 200.27 339.1 197.47V189.97H340.8V204.07H340.9Z" fill="black"/>
<path d="M344.7 189.97H346.3V193.27H346.4C347.3 190.97 349.2 189.67 351.7 189.77V191.47C348.6 191.27 346.5 193.57 346.5 196.47V203.97H344.8V189.97H344.7Z" fill="black"/>
<path d="M354.3 197.47C354.3 199.97 355.6 202.97 358.9 202.97C361.4 202.97 362.8 201.47 363.3 199.37H365C364.3 202.57 362.4 204.37 358.9 204.37C354.4 204.37 352.6 200.97 352.6 196.97C352.6 193.27 354.5 189.57 358.9 189.57C363.3 189.57 365.2 193.57 365.1 197.47H354.3ZM363.4 195.97C363.3 193.37 361.7 190.97 358.9 190.97C356.1 190.97 354.5 193.47 354.3 195.97H363.4Z" fill="black"/>
</g>
<defs>
<linearGradient id="paint0_linear_1_13" x1="165.45" y1="141.52" x2="165.45" y2="18.3724" gradientUnits="userSpaceOnUse">
<stop stop-color="#A2D2CA" stop-opacity="0.1"/>
<stop offset="0.14" stop-color="#A2D2CA" stop-opacity="0.3"/>
<stop offset="0.52" stop-color="#A2D2CA" stop-opacity="0.7"/>
<stop offset="0.82" stop-color="#ADD7D0"/>
<stop offset="1" stop-color="#A2D2CA"/>
</linearGradient>
<linearGradient id="paint1_linear_1_13" x1="246.014" y1="178.979" x2="166.846" y2="178.979" gradientUnits="userSpaceOnUse">
<stop stop-color="#B9BABB" stop-opacity="0.2"/>
<stop offset="0.27" stop-color="#B9BABB" stop-opacity="0.3"/>
<stop offset="0.72" stop-color="#B9BABB" stop-opacity="0.5"/>
<stop offset="1" stop-color="#B9BABB" stop-opacity="0.7"/>
</linearGradient>
<clipPath id="clip0_1_13">
<rect width="425.2" height="251.87" fill="white"/>
</clipPath>
</defs>
</svg>
